<?xml version="1.0" standalone="no"?>
<!DOCTYPE svg PUBLIC "-//W3C//DTD SVG 20010904//EN"
 "http://www.w3.org/TR/2001/REC-SVG-20010904/DTD/svg10.dtd">
<svg version="1.0" xmlns="http://www.w3.org/2000/svg"
 width="2800.000000pt" height="1100.000000pt" viewBox="0 0 2800.000000 1100.000000"
 preserveAspectRatio="xMidYMid meet">

<g transform="translate(0.000000,1100.000000) scale(0.100000,-0.100000)"
fill="#000000" stroke="none">
<path d="M0 5500 l0 -5500 14000 0 14000 0 0 5500 0 5500 -14000 0 -14000 0 0
-5500z m14040 3762 c110 -66 593 -352 1033 -612 l207 -123 0 -298 c0 -165 4
-299 8 -299 5 0 37 17 73 39 297 178 412 242 424 237 16 -6 159 -90 625 -366
173 -103 408 -242 523 -310 l207 -123 0 -806 0 -806 -103 -61 c-56 -34 -168
-100 -249 -148 -82 -49 -148 -91 -148 -95 0 -4 113 -74 250 -156 l250 -148 0
-806 0 -806 -137 -82 c-666 -395 -1210 -716 -1219 -720 -9 -3 -106 51 -374
211 -52 31 -98 56 -102 56 -4 0 -8 -127 -8 -283 l0 -282 -272 -162 c-860 -510
-1074 -636 -1084 -640 -6 -2 -240 132 -520 297 -280 166 -587 347 -681 403
l-173 102 -2 291 -3 291 -225 -134 c-124 -74 -235 -139 -247 -145 -19 -9 -33
-4 -95 34 -40 25 -212 128 -383 228 -170 101 -386 229 -480 285 -93 55 -227
134 -297 175 l-128 74 0 806 0 807 218 128 c119 70 235 139 256 153 l39 24
-35 22 c-20 11 -136 80 -257 151 l-220 130 -1 805 0 805 168 100 c92 54 239
142 327 194 211 124 734 434 808 479 50 29 62 33 82 24 13 -6 119 -68 234
-137 115 -69 212 -125 215 -125 3 0 6 132 6 293 l0 293 447 264 c246 146 551
327 678 402 126 76 235 137 240 138 6 0 62 -31 125 -68z"/>
<path d="M13820 9168 c-79 -47 -316 -188 -385 -228 -16 -10 -165 -98 -330
-196 -165 -98 -319 -188 -342 -202 -24 -13 -45 -27 -47 -31 -4 -6 168 -104
948 -542 94 -52 189 -106 211 -119 l41 -23 434 225 c239 124 522 270 627 324
106 54 193 101 193 104 -1 3 -199 122 -441 265 -243 143 -523 308 -623 367
-99 60 -185 108 -191 108 -5 -1 -48 -24 -95 -52z"/>
<path d="M12650 8153 l0 -278 93 -55 c50 -30 169 -100 262 -155 94 -56 230
-136 303 -179 l132 -78 0 -290 c0 -263 2 -290 16 -284 9 3 93 52 188 108 94
56 183 108 199 116 l27 13 0 340 0 339 -42 21 c-24 12 -149 81 -278 154 -129
73 -365 205 -525 295 -159 89 -309 173 -332 187 l-43 24 0 -278z"/>
<path d="M15080 8324 c-73 -39 -545 -283 -987 -511 l-133 -68 3 -324 2 -324
218 -128 c120 -71 220 -129 223 -129 2 0 4 127 4 283 l0 282 358 212 c196 117
372 222 390 233 l32 20 0 250 c0 193 -3 250 -12 250 -7 0 -51 -21 -98 -46z"/>
<path d="M11900 8002 c-91 -55 -277 -166 -415 -247 -488 -289 -600 -356 -607
-363 -4 -4 164 -104 375 -222 210 -118 429 -241 487 -273 58 -33 143 -81 190
-107 47 -26 99 -56 115 -65 l31 -18 434 225 c239 124 522 270 627 324 106 55
193 101 193 104 0 3 -89 57 -198 121 -108 64 -386 227 -616 364 -231 136 -426
249 -435 251 -9 2 -90 -40 -181 -94z"/>
<path d="M15710 8067 c-56 -35 -313 -188 -830 -492 -157 -93 -290 -173 -297
-179 -13 -11 -5 -16 442 -266 105 -59 269 -151 365 -205 96 -54 222 -125 280
-157 l105 -59 90 45 c50 25 187 95 305 157 393 204 674 349 768 397 50 25 92
49 92 52 -1 3 -92 59 -203 124 -111 65 -388 229 -616 364 -228 135 -422 247
-430 249 -9 2 -41 -12 -71 -30z"/>
<path d="M10810 6578 l0 -733 221 -130 c235 -139 349 -206 741 -438 137 -81
250 -147 253 -147 3 0 5 337 5 749 l0 749 -40 21 c-22 11 -147 81 -277 155
-131 73 -368 207 -528 296 -159 89 -309 173 -332 187 l-43 24 0 -733z"/>
<path d="M14510 7043 l0 -268 395 -234 395 -234 2 -465 3 -466 205 -122 c113
-68 208 -123 213 -123 4 -1 7 335 7 747 l0 747 -168 95 c-170 96 -258 145
-712 400 -140 78 -274 154 -297 167 l-43 25 0 -269z"/>
<path d="M13240 7204 c-47 -25 -267 -139 -490 -254 -223 -115 -454 -235 -515
-267 l-110 -58 -3 -747 c-1 -412 1 -748 5 -748 5 0 105 58 223 128 l215 129 3
459 2 460 143 84 c78 46 237 140 352 208 116 69 227 135 248 149 l38 24 -1
239 c-1 178 -4 240 -13 240 -7 0 -50 -21 -97 -46z"/>
<path d="M16935 7202 c-49 -27 -198 -104 -330 -172 -132 -68 -321 -166 -420
-217 -99 -52 -222 -115 -272 -141 l-93 -47 0 -748 c0 -639 2 -748 14 -744 8 3
126 72 263 153 136 81 406 240 598 354 l350 207 3 702 c2 558 0 701 -10 701
-7 0 -53 -22 -103 -48z"/>
<path d="M13710 6872 c-185 -111 -689 -409 -903 -535 -37 -22 -69 -43 -72 -47
-2 -3 94 -61 213 -128 119 -66 264 -147 322 -180 58 -32 184 -103 280 -157 96
-54 222 -125 280 -158 l105 -59 90 46 c50 25 164 85 255 132 91 47 280 145
420 217 140 72 308 159 373 193 l119 61 -29 20 c-15 11 -73 46 -128 78 -55 32
-192 113 -305 180 -113 67 -281 167 -375 223 -93 55 -224 132 -290 171 -66 39
-124 71 -130 71 -5 0 -107 -58 -225 -128z"/>
<path d="M12670 5478 l0 -733 173 -101 c94 -56 255 -151 357 -211 544 -323
680 -403 685 -403 3 0 5 337 5 748 l0 748 -167 94 c-152 85 -313 175 -553 310
-47 26 -159 89 -250 140 -91 51 -184 103 -207 117 l-43 25 0 -734z"/>
<path d="M15115 6112 c-38 -21 -164 -87 -280 -146 -115 -59 -355 -183 -532
-274 l-323 -167 0 -749 c0 -691 1 -748 17 -742 9 4 136 78 282 165 146 87 367
218 491 291 371 219 425 252 432 264 4 6 8 323 8 704 0 547 -3 692 -12 692 -7
0 -44 -17 -83 -38z"/>
<path d="M11130 5325 c-96 -57 -195 -116 -219 -130 -24 -14 -42 -28 -39 -30 2
-2 91 -53 198 -113 263 -146 938 -525 976 -547 l30 -18 170 88 c93 48 204 106
246 129 l78 41 0 267 0 267 -52 -30 c-29 -17 -140 -83 -245 -146 l-193 -114
-32 17 c-18 9 -187 108 -376 220 -189 112 -349 204 -355 204 -7 0 -91 -47
-187 -105z"/>
<path d="M16379 5345 c-79 -47 -151 -89 -159 -95 -68 -43 -438 -260 -444 -260
-3 0 -104 58 -223 129 -120 72 -226 133 -236 136 -16 7 -17 -9 -17 -247 l0
-253 128 -72 c70 -39 177 -99 237 -133 l110 -62 95 48 c52 27 180 93 284 147
275 143 677 351 784 405 50 25 92 49 92 52 0 3 -39 28 -87 55 -47 28 -156 92
-242 142 -86 51 -161 93 -167 93 -6 0 -76 -38 -155 -85z"/>
<path d="M10810 4358 l1 -733 262 -155 c144 -85 345 -204 447 -264 402 -238
501 -296 505 -296 3 0 5 337 5 750 l0 750 -41 20 c-22 12 -255 142 -517 289
-262 147 -499 280 -527 296 -27 15 -69 38 -92 52 l-43 25 0 -734z"/>
<path d="M16955 4992 c-38 -21 -164 -87 -280 -146 -115 -59 -355 -183 -532
-274 l-323 -167 0 -749 c0 -599 3 -747 13 -743 7 2 98 55 202 117 294 174 601
356 815 482 l195 115 3 702 c2 557 0 701 -10 701 -7 0 -44 -17 -83 -38z"/>
<path d="M15030 4535 c-124 -74 -226 -138 -227 -142 -4 -10 -15 -2 268 -170
l229 -135 2 -466 3 -466 205 -122 c113 -68 208 -123 213 -123 4 -1 7 336 7
747 l0 748 -235 132 c-129 73 -236 132 -238 132 -1 -1 -103 -61 -227 -135z"/>
<path d="M12390 4544 c-124 -64 -235 -122 -247 -130 l-23 -14 0 -745 c0 -410
3 -745 8 -745 4 0 104 58 222 128 l215 128 3 460 2 459 223 132 c122 73 237
142 256 154 l34 21 -219 130 c-120 72 -226 132 -234 134 -8 3 -116 -48 -240
-112z"/>
<path d="M12990 4225 c-96 -57 -195 -116 -219 -130 -24 -14 -42 -27 -40 -29 2
-2 135 -77 294 -166 290 -163 594 -333 800 -450 l110 -62 105 54 c58 30 202
104 320 165 370 192 641 332 738 381 50 25 92 49 92 52 -1 7 -469 282 -489
287 -9 2 -108 -51 -221 -118 -113 -67 -280 -166 -371 -220 -92 -55 -169 -99
-172 -99 -3 0 -90 50 -194 111 -103 62 -270 161 -371 220 -101 60 -189 109
-195 109 -7 -1 -91 -48 -187 -105z"/>
<path d="M12670 3258 l0 -733 173 -101 c94 -56 244 -144 332 -196 88 -52 283
-168 432 -256 150 -89 275 -162 278 -162 3 0 5 337 5 749 l0 748 -132 73 c-73
40 -162 90 -198 111 -36 20 -231 131 -435 245 -203 114 -389 218 -412 232
l-43 24 0 -734z"/>
<path d="M15090 3879 c-52 -28 -210 -109 -350 -181 -140 -72 -316 -163 -390
-202 -74 -40 -188 -98 -252 -131 l-118 -60 0 -747 c0 -412 3 -748 7 -748 6 0
64 34 428 250 99 59 293 173 430 255 138 81 276 163 308 182 l57 34 0 700 c0
553 -3 699 -12 699 -7 0 -56 -23 -108 -51z"/>
</g>
</svg>
